<svg xmlns="http://www.w3.org/2000/svg" xml:space="preserve" width="18" height="18">
<path d="M9 0C4 0 0 4 0 9s4 9 9 9 9-4 9-9-4-9-9-9zM6 3.2C6.1 1.4 7.8.8 9.3.8c1.7 0 3.2.8 3.2 2.4 0 1.1-.8 1.7-1.5 2.2-.9.6-1.2.8-1.2 1.6v.1c0 .1-.1.3-.3.3h-1c-.2 0-.3-.1-.3-.3v-.2c0-1 .6-1.6 1.4-2.1.7-.5 1.2-.8 1.2-1.5 0-.9-.8-1.2-1.6-1.2-1 0-1.5.5-1.6 1.2 0 .1-.2.3-.3.3h-1c-.1-.2-.3-.3-.3-.4zM10 9c0 .6-.4 1-1 1s-1-.4-1-1 .4-1 1-1 1 .4 1 1zm-1 7c-3.5 0-6.4-2.6-6.9-6h4.1c.4 1.2 1.5 2 2.8 2s2.4-.8 2.8-2h4.1c-.4 3.4-3.3 6-6.9 6z" style="fill:#e80027;fill-rule:evenodd;clip-rule:evenodd"/>
</svg>