<svg xmlns="http://www.w3.org/2000/svg" version="1.1" xmlns:xlink="http://www.w3.org/1999/xlink" xmlns:svgjs="http://svgjs.com/svgjs" width="1000" height="1000"><rect width="1000" height="1000" rx="500" ry="500" fill="#ffffff"></rect><g transform="matrix(55.55555555555556,0,0,55.55555555555556,0,0.000002601411608793569)"><svg xmlns="http://www.w3.org/2000/svg" version="1.1" xmlns:xlink="http://www.w3.org/1999/xlink" xmlns:svgjs="http://svgjs.com/svgjs" width="18" height="18"><svg xmlns="http://www.w3.org/2000/svg" xmlns:xlink="http://www.w3.org/1999/xlink" version="1.1" style="" xml:space="preserve" width="18" height="18"><rect id="backgroundrect" width="100%" height="100%" x="0" y="0" fill="none" stroke="none"></rect>
<style type="text/css">
	.st0{fill:#E80027;fill-rule:evenodd;clip-rule:evenodd;}
</style>

<g class="currentLayer" style=""><title>Layer 1</title><path class="st0" d="M9.000000190734863,-4.7683715642676816e-8 c-5,0 -9,4 -9,9 s4,9 9,9 c5,0 9,-4 9,-9 S14.000000190734863,-4.7683715642676816e-8 9.000000190734863,-4.7683715642676816e-8 zM6.000000190734863,3.1999999523162845 c0.1,-1.8 1.8,-2.4 3.3,-2.4 c1.7000000000000002,0 3.2,0.8 3.2,2.4 c0,1.1 -0.8,1.7000000000000002 -1.5,2.2 c-0.9,0.6000000000000001 -1.2,0.8 -1.2,1.6 v0.1 c0,0.1 -0.1,0.30000000000000004 -0.30000000000000004,0.30000000000000004 h-1 c-0.2,0 -0.30000000000000004,-0.1 -0.30000000000000004,-0.30000000000000004 l0,-0.2 c0,-1 0.6000000000000001,-1.6 1.4,-2.1 c0.7000000000000001,-0.5 1.2,-0.8 1.2,-1.5 c0,-0.9 -0.8,-1.2 -1.6,-1.2 c-1,0 -1.5,0.5 -1.6,1.2 c0,0.1 -0.2,0.30000000000000004 -0.30000000000000004,0.30000000000000004 H6.300000190734863 c0,0 0,0 0,0 C6.200000190734864,3.399999952316284 6.000000190734863,3.299999952316284 6.000000190734863,3.1999999523162845 L6.000000190734863,3.1999999523162845 zM10.000000190734863,8.999999952316283 c0,0.6000000000000001 -0.4,1 -1,1 s-1,-0.4 -1,-1 s0.4,-1 1,-1 S10.000000190734863,8.399999952316284 10.000000190734863,8.999999952316283 zM9.000000190734863,15.999999952316283 c-3.5,0 -6.4,-2.6 -6.9,-6 h4.1 c0.4,1.2 1.5,2 2.8,2 s2.4,-0.8 2.8,-2 h4.1 C15.500000190734863,13.399999952316286 12.600000190734864,15.999999952316283 9.000000190734863,15.999999952316283 z" id="svg_1"></path></g></svg></svg></g></svg>